<?xml version="1.0" encoding="utf-8"?>
<!-- Generator: Adobe Illustrator 25.2.0, SVG Export Plug-In . SVG Version: 6.00 Build 0)  -->
<svg version="1.1" id="Layer_1" xmlns="http://www.w3.org/2000/svg" xmlns:xlink="http://www.w3.org/1999/xlink" x="0px" y="0px"
	 viewBox="0 0 32 32" style="enable-background:new 0 0 32 32;" xml:space="preserve">
<style type="text/css">
	.st0{fill:#C0392B;}
</style>
<g id="Layer_2_1_">
	<path class="st0" d="M27.9,29.1H4.2c-1.7,0-3.1-1.4-3.2-3.1V11.1h30v14.8C31,27.6,29.6,29.1,27.9,29.1z M3,13.1v12.8
		c0,0.6,0.5,1.1,1.2,1.1h23.7c0.6,0,1.1-0.5,1.1-1.1V13.1H3z"/>
	<path class="st0" d="M31,13.1H1V6.2c0-1.7,1.4-3.1,3.2-3.1h23.7c1.7,0,3.1,1.4,3.1,3.1V13.1z M3,11.1h26V6.2c0-0.6-0.5-1.2-1.1-1.2
		H4.2C3.5,5.1,3,5.6,3,6.2l0,0V11.1z"/>
	<rect x="11.9" y="7" transform="matrix(0.3218 -0.9468 0.9468 0.3218 3.3879 20.7167)" class="st0" width="8.6" height="2"/>
	<rect x="19.6" y="7" transform="matrix(0.3216 -0.9469 0.9469 0.3216 8.6212 28.015)" class="st0" width="8.6" height="2"/>
	<rect x="3.8" y="7" transform="matrix(0.3218 -0.9468 0.9468 0.3218 -2.0552 13.125)" class="st0" width="8.6" height="2"/>
	<path class="st0" d="M14.3,24.6c-0.6,0-1.1-0.5-1.1-1.1l0,0v-7c0-0.6,0.5-1.1,1.1-1.1c0.2,0,0.4,0.1,0.6,0.2l5.4,3.5
		c0.5,0.3,0.7,1,0.3,1.5c-0.1,0.1-0.2,0.2-0.3,0.3l-5.4,3.5C14.7,24.6,14.5,24.6,14.3,24.6z M13.8,22.7L13.8,22.7z M15.2,18.1v3.7
		l2.9-1.9L15.2,18.1z M13.8,17.2L13.8,17.2z"/>
</g>
</svg>
